<svg width="18.000000" height="23.000000" viewBox="0 0 18 23" fill="none" xmlns="http://www.w3.org/2000/svg" xmlns:xlink="http://www.w3.org/1999/xlink">
	<desc>
			Created with Pixso.
	</desc>
	<defs/>
	<path id="Shape" d="M1.69 3.02L1.68 5.46L1.68 17.53C1.68 19.6 3.32 21.27 5.34 21.27L15.03 21.27C14.68 22.28 13.75 23 12.64 23L5.34 23C2.39 23 0 20.55 0 17.53L0 5.46C0 4.33 0.7 3.37 1.69 3.02ZM15.46 0C16.86 0 18 1.15 18 2.58L18 17.53C18 18.96 16.86 20.12 15.46 20.12L5.34 20.12C3.94 20.12 2.81 18.96 2.81 17.53L2.81 2.58C2.81 1.15 3.94 0 5.34 0L15.46 0Z" fill="#FFFFFF" fill-opacity="1.000000" fill-rule="nonzero"/>
</svg>
